<svg viewBox="0 0 150 40" xmlns="http://www.w3.org/2000/svg" fill-rule="evenodd" clip-rule="evenodd" stroke-linejoin="round" stroke-miterlimit="2"><path d="M17.281 10.862c-.008.114-.085.196-.178.19-.088-.006-.151-.078-.145-.166.008-.135.061-.196.164-.192.114.005.167.061.159.168zm-.002-1.115c.003-.017.037-.029.057-.043.032.05.063.1.112.176-.111-.028-.185-.041-.169-.133zm.438.565c.007.019-.049.082-.085.092-.089.023-.184.03-.212-.112.062-.042.112-.077.188-.129.04.051.088.095.109.149zm.05-1.104c.025.047.047.072.048.098 0 .017-.041.053-.047.05-.026-.015-.06-.037-.064-.061-.004-.019.031-.045.063-.087zm.157.43c-.002.023-.037.045-.071.082-.024-.043-.054-.072-.049-.094.006-.022.045-.051.068-.051.02.001.054.042.052.063zm-.01 1.503c-.011-.012-.033-.026-.032-.039.001-.019.016-.038.031-.072.024.031.046.048.043.057-.007.021-.027.036-.042.054zm.179-1.913c.003.064.013.091.004.101-.032.031-.07.055-.115.09-.072-.152.04-.13.111-.191zm-.089 1.188c-.06-.092-.058-.157.028-.243.044.048.075.082.122.134-.054.039-.099.072-.15.109zm-.605 1.62c.001-.043.002-.085.004-.127h.075c.004.038.015.077.009.113-.001.009-.057.01-.088.014zm-.38-1.58c.01-.012.037-.009.057-.012v.172c-.079-.061-.104-.106-.057-.16zm1.682-1.743c.001-.001.001-.002.001-.003l.006.003c0-.026-.009-.056.002-.078.031-.069.098-.084.157-.053.033.016.067.076.061.11-.015.085-.088.072-.151.054-.024-.006-.046-.02-.069-.033.001.001.001.002.001.002l-.007-.005s.007.005.006.005c-.002 0-.005-.001-.007-.002-.01.031-.021.063-.046.138-.024-.076-.035-.114-.053-.172.049.017.075.026.099.034zm.248-1.297c-.016.106-.057.153-.179.101.029-.115.083-.138.179-.101zm-.239 1.631c-.014.001-.048-.035-.048-.055-.001-.083.059-.07.115-.07.016.07.002.117-.067.125zm-1.93 1.346c.008-.051.017-.1.025-.15.035.012.093.016.1.036.024.072-.037.097-.125.114zm-.309.796c-.075-.126-.051-.176.078-.235-.03.091-.048.143-.078.235zm-.567-.752c-.006-.034-.013-.067-.019-.101l.046-.005c.003.034.006.067.009.101-.011.002-.024.003-.036.005zm-.072-1.679c.028.01.055.023.082.036-.009.014-.017.027-.026.041-.024-.015-.049-.03-.073-.048-.002-.001.015-.03.017-.029zm-.22 2.214c-.023-.004-.054-.043-.053-.066 0-.019.041-.054.062-.053.025.002.047.036.083.067-.041.025-.07.056-.092.052zm-.862.579c-.027-.046-.056-.077-.059-.109-.001-.015.058-.055.068-.049.03.019.057.051.069.084.004.011-.041.04-.078.074zm2.411-1.993c-.059.043-.083.061-.106.079-.001-.002-.003-.005-.004-.006l-.097.122-1.166-1.272-.375.929c.007-.001.015-.002.024-.002.096-.001.164.073.16.175-.003.08-.073.154-.141.15-.051-.004-.105-.057-.125-.12l-.066.163c.035.028.071.057.117.094-.066.027-.125.05-.186.075l-1.931 4.772.682-.9c-.006-.007-.013-.013-.019-.02-.045-.052-.055-.11.047-.207.027.031.052.06.077.089l.904-1.194c-.034-.038-.055-.088-.047-.132.012-.067.031-.14.125-.141.038-.001.073.012.102.035l1.031-1.363.712.776c.025-.036.062-.056.113-.058.099-.004.205.023.243.126.021.06.018.138-.002.199-.01.033-.023.058-.038.077l.36.393.53-1.427c-.023-.025-.047-.05-.071-.074.067-.098.105-.139.15-.136l.237-.636c0-.094.013-.189.029-.281.012-.071.056-.123.126-.138l.623-1.672c-.005-.005-.011-.01-.016-.014.01-.012.022-.025.036-.041l.158-.422c0-.017.001-.034.001-.05h.017l.309-.83c-.022-.023-.044-.047-.055-.074-.006-.015.032-.046.067-.091.011.019.022.034.031.049l.171-.459c-.017 0-.035-.003-.051-.011l-.525.664c.038-.013.077-.027.129-.045-.013.142-.085.118-.15.11-.002-.009-.006-.019-.008-.028l-2.172 2.751c.011.004.024.01.04.016zM5.221 11.744c-.023.01-.054.034-.065.027-.025-.018-.04-.051-.059-.078.021-.014.042-.041.062-.04.034.001.067.02.1.032-.013.02-.026.04-.038.059zm-.601-1.109c-.019-.025-.047-.046-.055-.075-.004-.013.029-.038.058-.073.024.043.047.07.049.098.002.015-.033.033-.052.05zm-1.606.876c-.017-.006-.035-.026-.04-.043-.003-.014.013-.033.028-.067.024.034.042.053.05.076.002.007-.029.037-.038.034zm-.908-1.682c-.018-.013-.03-.036-.039-.058-.001-.005.029-.032.039-.029.015.005.025.028.051.06-.019.011-.043.031-.051.027zm4.118 4.333c-.018.013-.04.026-.056.039-.021-.032-.054-.063-.06-.098-.002-.018.032-.043.064-.077L4.13 8.722l-.53.608c.008.013.015.027.018.039.044.144.011.208-.144.31-.035-.039-.061-.077-.08-.114l-.421.483-.159-.212c-.026.008-.051.009-.059 0-.06-.06-.148-.109-.15-.244.011.002.02.003.029.005L.664 6.973c.001.018.002.035.002.053 0 .065-.008.131-.085.15-.067.016-.174-.057-.195-.129-.022-.076.016-.125.077-.154.032-.015.066-.026.11-.041L0 6.09l2.378 6.715 1.376-1.578 2.879 3.998-.409-1.063zM10.935 24.779c.057.074.102.115.119.164.006.02-.053.084-.086.087-.068.008-.125-.036-.12-.112.002-.036.041-.07.087-.139zm-1.458.01c-.021-.021-.042-.041-.063-.063.018-.017.034-.046.054-.047.017-.003.038.024.067.046-.026.028-.042.046-.058.064zm-.258.228c-.026-.034-.066-.066-.074-.105-.004-.025.039-.059.079-.116.035.064.072.102.072.14 0 .027-.05.054-.077.081zm-.252.824c-.04-.073-.086-.12-.077-.148.014-.044.068-.073.105-.107.021.039.061.079.06.118 0 .036-.043.071-.088.137zm-.379-3.397c-.078-.001-.137-.075-.134-.163.002-.079.076-.156.147-.151.069.004.122.084.115.177-.006.08-.038.138-.128.137zm-.084.245c-.007.004-.041-.02-.04-.028.002-.025.016-.048.025-.071.02.009.041.018.079.035-.03.032-.044.054-.064.064zm-2.305 2.27c.045.006.086.049.164.097-.076.057-.119.113-.167.117-.034.004-.097-.056-.106-.097-.016-.07.035-.127.109-.117zm.414-.484c.009-.004.034.029.065.058-.036.025-.058.051-.084.055-.011.002-.047-.042-.042-.054.009-.025.035-.049.061-.059zm-.542.108c-.006.018-.036.028-.055.042-.01-.017-.029-.036-.027-.051.003-.022.023-.041.051-.085.018.05.037.076.031.094zm-.274-7.467c-.019-.009-.032-.032-.047-.049.013-.012.03-.037.039-.034.021.005.037.025.064.046-.027.019-.048.042-.056.037zm.244 6.853c.013.037.028.059.027.082 0 .011-.026.023-.04.034-.012-.02-.031-.039-.035-.061-.002-.01.022-.027.048-.055zm1.312 2.069c.021.016.036.028.05.04l-.044.053c-.013-.013-.035-.025-.038-.041-.002-.014.018-.031.032-.052zm-1.66-5.352c-.017-.022-.041-.043-.038-.05.01-.019.031-.032.047-.047.009.016.026.032.026.049 0 .013-.019.028-.035.048zm-.095-.582c-.004-.008.024-.04.039-.041.021-.001.043.017.084.036-.039.031-.059.059-.077.058-.018-.001-.038-.031-.046-.053zm-.085.36c-.013.005-.068-.044-.065-.062.006-.034.033-.082.062-.091.026-.009.065.025.131.055-.059.047-.089.082-.128.098zm-.027 3.587c.037-.063.067-.116.108-.187.076.183.07.192-.108.187zm-.019-.283c-.043.075-.1.061-.157.02-.004-.007-.011-.016-.01-.019.036-.057.076-.11.15-.057.014.009.024.044.017.056zm-.209-.935c-.008.039-.06.087-.098.094-.038.006-.102-.026-.119-.06-.015-.031.006-.095.033-.129.028-.036.081-.054.153-.097.016.084.042.142.031.192zm-.255-1.898c.046.024.093.047.137.074.003.002-.018.051-.019.051-.05-.015-.099-.032-.148-.05l.03-.075zm-.124-.572c0-.038-.001-.076.002-.114 0-.005.032-.012.033-.011.016.037.029.074.043.111-.026.005-.052.009-.078.014zm.06-2.453c.081.068.081.12 0 .208v-.208zm.278 4.294c.013.019.03.037.038.058.001.005-.03.031-.042.029-.014-.003-.024-.027-.039-.047.017-.016.03-.028.043-.04zm.283-3.979c.03.022.061.043.108.076-.039.033-.065.07-.087.068-.026-.003-.067-.036-.07-.06-.003-.026.031-.057.049-.084zm-1.578.65c-.039-.001-.104-.062-.106-.1-.004-.049.042-.102.088-.197.058.08.103.118.114.163.017.072-.025.137-.096.134zm-.397 4.404c.097.027.159.088.172.192.004.089-.091.211-.186.238-.093.027-.158-.008-.216-.121-.035-.07-.073-.14-.096-.214-.013-.041-.011-.099.01-.132.014-.022.076-.023.113-.017.069.011.135.035.203.054zm.111-.21c-.004.041-.033.079-.063.146-.045-.057-.093-.094-.086-.113.013-.04.056-.069.086-.103.022.023.064.048.063.07zm-.122-.594c.21-.042.241-.031.302.084.046.087.034.166-.032.233-.063.063-.139.062-.211.015-.132-.088-.088-.206-.059-.332zm.364 1.327c.037.021.067.054.115.097-.05.034-.081.056-.111.077-.022-.038-.052-.073-.062-.113-.004-.016.051-.065.058-.061zm.177 1.634c.041.17-.008.319-.132.47-.168-.114-.196-.279-.227-.434-.017-.091.079-.187.16-.196.082-.009.173.058.199.16zm-.227 3.429c-.061-.093.002-.173.12-.238.05.081.091.149.133.218-.096.088-.191.115-.253.02zm.415.069c.012-.005.04.025.077.049-.04.031-.062.058-.09.065-.013.004-.036-.031-.054-.049.022-.022.04-.052.067-.065zm.08-.702c.026.013.063.038.064.061.002.024-.033.05-.069.094-.023-.05-.045-.077-.044-.103.001-.019.041-.056.049-.052zm.092 1.483c.004.02-.018.043-.028.066l-.045.027c-.009-.026-.029-.054-.024-.077.006-.026.033-.048.05-.071.017.018.044.034.047.055zm.158-2.572c.029.055.053.087.059.123.003.014-.031.036-.049.055-.025-.026-.061-.049-.071-.081-.006-.018.03-.051.061-.097zm.273 1.116c.001.001.033.015.031.024-.022.129-.032.263-.078.383-.029.077-.158.06-.183-.026-.018-.059-.008-.145.025-.194.049-.073.131-.122.205-.187zm-.847 1.539c-.035 0-.086.015-.106-.003-.105-.095-.255-.135-.306-.299-.02-.062-.13-.095-.214-.15.02-.057.043-.122.066-.186-.029-.023-.069-.043-.094-.075-.046-.058-.024-.115.038-.139.093-.036.194-.05.281.02.029.023.07.08.062.093-.022.035-.066.06-.106.079-.021.01-.052.001-.104.001.09.113.15.189.284.168.059-.009.142.055.193.107.065.065.039.134-.02.206-.023.028.013.107.026.178zm-.418-1.255c-.224.027-.224.027-.194-.146.072.055.133.101.194.146zm-.267-1.724c.048-.034.112-.043.213-.075-.049.089-.069.144-.106.182-.02.021-.07.013-.106.019-.001-.044-.02-.113-.001-.126zm-.121-2.997c-.002-.008.041-.04.059-.037.02.004.033.036.056.066-.031.023-.051.039-.072.055-.015-.028-.037-.054-.043-.084zm-.03 6.24c-.017-.019-.045-.037-.046-.058-.002-.018.025-.039.051-.075.02.039.042.062.04.082-.002.018-.029.034-.045.051zm-.151-3.159c.008-.029.063-.073.082-.067.038.013.067.056.114.1-.048.038-.078.08-.108.081-.07.004-.102-.051-.088-.114zm-.084-.333v-.233c.017-.004.034-.009.051-.012.036.045.073.091.121.152-.057.032-.1.055-.172.093zm-.232-3.384c-.085-.003-.136-.051-.133-.133.003-.078.048-.138.136-.127.085.012.169.037.277.061-.083.141-.161.204-.28.199zm-.02.691c-.003-.017-.011-.05-.009-.051.033-.01.067-.016.101-.024.003.019.006.037.009.055-.033.007-.067.014-.101.02zm-.042-1.628c.069-.008.144.058.133.128-.011.065-.045.127-.069.192-.111-.039-.155-.101-.15-.198.003-.06.013-.114.086-.122zm-.031-1.402c.016-.004.045.036.085.071-.047.029-.077.06-.107.062-.021 0-.043-.042-.064-.064.029-.025.054-.058.086-.069zm-.212-.504c-.02-.01-.035-.088-.02-.105.054-.063.109-.038.155.024-.021.073-.061.119-.135.081zm.018 4.218c-.024-.016-.045-.042-.061-.068-.003-.005.026-.042.033-.04.028.009.054.027.097.052-.033.028-.062.06-.069.056zm.244-4c.029.047.056.071.06.099.002.018-.027.041-.042.062-.025-.019-.065-.035-.071-.058-.007-.022.025-.054.053-.103zm.373-1.743c.008.018.025.051.02.054-.027.021-.059.036-.089.053-.008-.018-.015-.036-.023-.053.031-.018.062-.036.092-.054zm.068 6.769c-.106-.093-.018-.164-.005-.234.085.079.046.147.005.234zm.082-2.688c.019.013.039.027.068.047-.024.031-.037.062-.055.065-.017.004-.059-.027-.057-.033.008-.028.028-.053.044-.079zm-.951-.589c-.015.004-.053-.026-.057-.045-.015-.075.036-.093.099-.104.046.087.022.131-.042.149zm-.229.633c-.077-.09-.048-.148.006-.187.066-.048.141-.067.218.046-.078.048-.152.096-.224.141zm-.136-2.299c-.008.019-.015.04-.027.058-.036.058-.066.146-.151.117-.093-.031-.05-.114-.038-.183.011-.062.012-.126.021-.219.071.01.146.001.194.033.072.05.03.128.001.194zm.176 1.008c.027.005.053.03.095.057-.034.028-.058.06-.072.056-.027-.008-.053-.033-.068-.058-.005-.007.032-.057.045-.055zm9.186 3.371c.02.01.036.029.059.05-.025.022-.039.034-.054.046-.014-.019-.034-.036-.039-.057-.003-.01.029-.041.034-.039zm-.005-2.493c.008-.045.051-.083.077-.125.039.028.078.056.143.102-.058.062-.087.119-.127.128-.069.017-.101-.048-.093-.105zm.296-3.76c.028.025.075.047.08.076.004.029-.034.064-.067.119-.034-.055-.067-.086-.07-.12-.003-.023.036-.05.057-.075zm.332.155c.027-.008.069.03.111.051-.016.022-.03.039-.042.054.031.009.066.045.116.078-.054.048-.088.101-.122.101-.031 0-.084-.054-.088-.088 0-.009.004-.021.01-.033-.029-.022-.063-.045-.064-.069-.001-.032.044-.082.079-.094zm.347-1.435c.028.024.056.049.096.083-.039.03-.067.066-.085.062-.026-.007-.058-.043-.061-.069-.002-.024.032-.051.05-.076zm.869-1.356c.024.064.038.086.037.107 0 .011-.023.022-.037.033-.013-.019-.033-.038-.037-.059-.002-.015.015-.034.037-.081zm1.708 3.683c.085-.003.151.059.15.139-.001.088-.088.188-.166.189-.078.001-.146-.066-.15-.145-.004-.094.075-.18.166-.183zm.221-3.254c.035.045.074.073.077.105 0 .024-.043.052-.067.078-.023-.028-.057-.054-.065-.086-.005-.022.028-.052.055-.097zm.053 3.241c-.107-.082-.055-.118.049-.136-.015.041-.03.082-.049.136zm-.254 1.634c-.03-.032-.056-.069-.073-.11-.004-.008.044-.052.049-.049.038.022.071.053.121.095-.048.032-.093.068-.097.064zm-.206 1.798c-.028-.035-.079-.072-.077-.104.003-.044.042-.107.078-.118.031-.01.08.044.152.088-.07.062-.111.098-.153.134zm-.077-3.803c.026.026.062.049.073.081.005.014-.038.061-.063.065-.021.004-.048-.035-.084-.065.031-.034.053-.058.074-.081zm.654-.392c.029-.043.306-.062.333-.02.043.068.064.149.094.224-.012.011-.024.022-.036.034-.1-.049-.195-.118-.313-.042-.016.011-.093-.033-.106-.066-.014-.035.004-.094.028-.13zm.529-1.939c.103.021.115.1.147.187-.169-.024-.169-.024-.147-.187zm.261-.408c.098-.001.17.087.168.204-.002.117-.089.234-.175.235-.086.001-.182-.126-.175-.232.007-.101.099-.205.182-.207zm.269.721c.072.044.038.133-.085.237-.085-.06-.136-.135-.061-.229.021-.027.11-.03.146-.008zm.029.736c-.014-.019-.033-.036-.039-.057-.002-.01.021-.026.033-.039.017.015.033.031.056.051-.023.022-.037.033-.05.045zm-.934 1.771c-.025-.028-.072-.059-.069-.084.003-.04.04-.077.073-.13.041.045.093.084.086.1-.017.043-.058.076-.09.114zm1.213-2.195c.001.027.012.063 0 .078-.049.059-.094.036-.167-.069.077-.004.122-.006.167-.009zm.051 1.39c.028.099-.041.13-.146.188.005-.117.002-.192.097-.216.013-.003.044.015.049.028zm.266-.577c.016.027.04.054.043.082.002.015-.039.052-.053.048-.027-.006-.049-.035-.088-.067.045-.029.072-.046.098-.063zm.263.286c.017-.003.04.025.07.048-.032.026-.053.054-.072.053-.019 0-.036-.032-.054-.05.019-.018.035-.048.056-.051zm.159 1.928c-.028.03-.045.048-.062.066-.017-.017-.046-.032-.049-.051-.003-.017.02-.052.037-.055.017-.004.041.02.074.04zm.225-2.564c-.067.028-.126.053-.202.085.066-.146.082-.152.202-.085zm.123.694c-.072.009-.124.016-.19.025.061-.136.061-.136.19-.025zm.087 1.613c.031-.02.096-.018.126.003.072.05.053.104-.061.21-.113-.113-.133-.17-.065-.213zm.062-1.673c.094.071.071.14.007.253-.076-.112-.106-.182-.007-.253zm.138-.996c.148.056.11.181.097.274-.015.111-.12.118-.215.126-.13-.193.043-.277.118-.4zm.137 1.103c.012-.002.027.022.044.037-.015.021-.027.036-.038.052-.015-.017-.035-.032-.044-.052-.003-.006.023-.034.038-.037zm.098.544c-.013.048-.05.095-.09.128-.01.007-.077-.038-.102-.072-.043-.061-.025-.124.038-.163.033-.02.074-.024.129-.041.011.058.035.108.025.148zm-.012 3.251c-.135-.113-.16-.223-.167-.33-.004-.039.049-.109.087-.118.072-.018.117.045.117.113-.001.096-.019.191-.037.335zm.09-2.512c.026.005.049.032.088.062-.043.03-.069.048-.094.065-.017-.026-.042-.051-.047-.078-.002-.015.037-.051.053-.049zm.021-.254c.018.066.031.113.048.179-.117-.062-.117-.062-.048-.179zm-.003 1.097c-.009.005-.035-.03-.054-.046.026-.028.049-.059.079-.079.008-.005.039.025.077.051-.043.033-.069.061-.102.074zm.221-2.706c.016.004.032.007.048.012.008.079.017.157.029.269-.07-.024-.121-.041-.189-.064.047-.089.08-.154.112-.217zm.067.544c-.009-.005-.016-.035-.014-.036.04-.021.082-.04.123-.059-.014.082-.04.131-.109.095zm-.008 2.109c.011-.038.022-.076.035-.113.001-.001.035.005.035.01.003.039.001.079.001.119-.023-.006-.047-.011-.071-.016zm.035.606c-.147-.063-.191-.124-.154-.193.028-.054.139-.084.186-.04.088.082.016.15-.032.233zm.029.155c-.02.031-.052.053-.079.079-.012-.021-.039-.047-.034-.061.013-.033.041-.06.077-.111.02.05.043.081.036.093zm-1.31 3.965c.079.039.116.058.167.083-.092.09-.121.04-.167-.083zm.028-6.022c-.004-.017.037-.046.058-.069.027.025.063.046.075.077.007.018-.027.052-.054.096-.036-.044-.07-.071-.079-.104zm-.055 5.741c.039-.019.077-.04.116-.059.009.02.018.04.026.059-.04.016-.081.032-.122.047l-.02-.047zm.093 3.44c-.073.044-.098.07-.112.064-.019-.007-.041-.036-.042-.057 0-.015.03-.043.049-.045.024-.002.05.017.105.038zm-.27-1.382c-.016.003-.054-.036-.051-.048.007-.028.033-.051.051-.076.024.018.047.036.087.066-.039.029-.061.055-.087.058zm-.304.528c.024-.061.047-.123.072-.185.014.006.028.012.043.018.003.073-.041.127-.115.167zm-.009 1.179c-.083-.076-.066-.114.039-.165-.016.067-.025.107-.039.165zm-.346-5.099c-.074-.001-.157-.096-.15-.174.006-.078.093-.162.168-.164.077-.003.146.082.143.176-.003.086-.079.163-.161.162zm-.055 3.455c-.012.002-.047-.046-.043-.054.014-.025.04-.051.066-.058.014-.004.038.03.071.059-.04.024-.065.048-.094.053zm-.06 1.599c-.045-.053-.087-.081-.087-.11-.001-.039.031-.079.049-.118.035.026.09.048.099.081.008.035-.032.08-.061.147zm2.053-.79c.051.057.107.095.103.122-.008.044-.056.08-.086.12-.032-.034-.08-.064-.088-.103-.005-.033.036-.075.071-.139zm.682-.644c.011-.003.029.018.067.043-.029.016-.046.033-.063.033-.013 0-.036-.022-.036-.035 0-.014.018-.037.032-.041zm.547-.741c.018.043.037.066.034.086-.002.017-.031.03-.048.045-.015-.02-.039-.039-.041-.06-.001-.017.026-.036.055-.071zm.204 2.594c.004-.07.056-.102.116-.083.042.014.075.061.142.118-.075.046-.115.091-.159.094-.079.006-.102-.061-.099-.129zm.534.978c.037.065.072.098.072.13-.003.069-.038.129-.119.113-.029-.007-.076-.065-.07-.079.023-.052.064-.094.117-.164zm.406-2.406c.072-.001.135.063.133.136-.001.07-.065.146-.151.163.012.012.024.026.04.044-.025.02-.046.044-.052.041-.021-.012-.037-.033-.055-.051l.033-.032c-.004 0-.007.001-.011.001-.022-.039-.07-.092-.083-.152-.015-.074.07-.15.146-.15zm-.018-1.066c.014-.006.05.033.091.064-.043.036-.069.072-.102.08-.017.004-.069-.052-.065-.061.015-.033.044-.068.076-.083zm.068 3.091c-.014-.021-.026-.045-.029-.069-.001-.006.038-.029.045-.024.018.013.029.037.049.065-.033.014-.063.031-.065.028zm-1.277.193c-.019-.034-.036-.053-.04-.075-.002-.01.022-.025.034-.037.015.018.034.035.042.056.004.009-.017.027-.036.056zm.007.751c-.011.082-.086.158-.151.152-.075-.007-.175-.123-.166-.192.012-.089.092-.163.172-.162.085.003.157.103.145.202zm1.608-1.322c.027.021.051.051.065.082.004.008-.03.034-.059.066-.029-.046-.051-.076-.065-.11-.002-.004.051-.043.059-.038zm-5.344.298c-.021-.022-.052-.04-.06-.065-.006-.014.023-.058.038-.059.026-.001.054.021.098.04-.034.038-.055.061-.076.084zm-.359-3.232c-.016-.027-.036-.052-.045-.081-.003-.008.031-.04.036-.037.026.014.049.035.087.066-.037.024-.057.038-.078.052zm-1.14-1.114c-.032-.059-.07-.097-.063-.124.007-.03.053-.052.081-.077.019.026.055.055.053.079-.003.033-.035.064-.071.122zm-.346-1.518c-.017-.014-.034-.033-.041-.053-.003-.008.028-.038.034-.036.02.009.035.027.058.049-.025.02-.047.042-.051.04zm-.272-1.345c-.026-.007-.049-.037-.062-.063-.003-.008.031-.048.05-.05.019-.002.041.027.117.083-.052.017-.083.037-.105.03zm-2.454 2.963l2.476-7.818.008-.028c.026-.104.096-.191.202-.25.115-.065.256-.084.378-.052.124.032.24.118.31.232.059.093.079.198.06.277l-.278.985c.006-.015.036-.036.053-.036.032.001.064.02.095.031-.012.019-.024.038-.036.056-.026.013-.061.042-.076.034-.021-.012-.036-.049-.038-.077l-1.609 5.709c-.144.518.154 1.063.673 1.217.51.142 1.048-.161 1.194-.677l.304-1.078c-.077.057-.128.1-.185.123-.013.006-.082-.071-.088-.116-.011-.076.027-.15.117-.139.027.003.052.019.083.042.01-.013.021-.025.031-.038.018.015.039.032.063.051l.295-1.047c-.093-.01-.126-.045-.096-.108.006-.013.051-.023.053-.021.018.036.032.073.048.11l.651-2.313.371-1.238c.033-.125.126-.201.191-.237.117-.064.258-.082.386-.047.122.032.234.117.303.23.061.101.083.215.061.303l-2.615 9.535c-.062.226-.041.468.06.683l.024.053c.013.024.029.047.043.068.018.031.039.061.061.088.339.419.951.481 1.365.138l2.515-2.09c.158-.134.585-.099.759.11.192.233.024.601-.136.793-.481.573-.994 1.446-1.571 2.467l2.14.187c.339-.577.651-1.07.912-1.382.067-.08.128-.163.185-.247-.019-.026-.025-.063-.017-.101.01-.043.061-.077.093-.114.012.012.025.024.037.037.559-.957.515-2.094-.156-2.904v-.001c-.654-.787-1.751-1.071-2.677-.792.031.013.069.062.07.093.001.042-.04.086-.081.164-.054-.067-.099-.099-.106-.137-.005-.033.002-.063.018-.087-.255.09-.496.221-.707.4l-.146.121.817-2.98c-.003-.007-.007-.014-.009-.021-.033-.11.015-.245.101-.314l.813-2.966c-.07-.083-.043-.141.055-.2l.024-.087c.033-.129.052-.26.063-.391-.027-.029-.055-.061-.087-.094.039-.034.068-.061.095-.085.004-.441-.115-.881-.353-1.277-.027-.045-.058-.088-.088-.131-.015-.007-.029-.013-.043-.019.003-.012.005-.022.007-.033-.332-.454-.802-.778-1.347-.92-.019-.005-.038-.008-.057-.012.012.042-.012.07-.084.147.007-.05.014-.099.023-.16-.243-.05-.489-.065-.733-.042-.06-.188-.144-.37-.251-.545-.334-.537-.855-.922-1.471-1.084-.617-.154-1.258-.069-1.805.24-.558.313-.967.835-1.124 1.433l-1.666 5.258c.048.025.061.062.02.13-.022-.013-.044-.019-.052-.029l-.074.233-1.072-4.717c-.23-1.295-1.488-2.153-2.805-1.914-.954.172-1.706.918-1.929 1.839-.236-.025-.469-.017-.699.026-.623.116-1.172.467-1.545.988-.349.488-.5 1.071-.436 1.672.034.025.062.061.082.078-.001.062-.021.11-.051.141l.949 4.386c.014-.017.029-.036.044-.057.054.075.115.127.106.154-.017.051-.061.091-.1.134l.147.678c.002-.002.004-.003.006-.005.005-.002.027.024.053.049-.017.011-.03.021-.043.029l.272 1.258-.228 2.671.02.002v-.105c.033.019.064.031.063.037-.004.024-.01.048-.016.072l1.868.163.24-2.817c.008-.101.002-.201-.019-.294l-1.466-6.776c-.024-.132.031-.244.082-.315.077-.109.192-.184.32-.206.126-.024.267.004.372.074.102.068.16.155.186.294l.127.575c.047.024.072.055.043.116-.003.005-.008.008-.014.013l1.148 5.159c.036.164.113.31.216.429.045.01.1.042.111.077.004.013.006.025.006.036.059.048.122.089.189.123.014-.015.029-.026.036-.024.032.009.056.04.102.079.157.05.328.061.5.023.52-.12.849-.647.734-1.172l-.03-.137c-.025.027-.042.049-.06.049-.022 0-.051-.035-.064-.061-.005-.01.028-.054.045-.055.02-.001.04.01.07.025l-1.125-5.245c-.043.033-.073.058-.104.059-.027.001-.078-.064-.079-.099 0-.034.053-.098.081-.097.025.001.05.018.081.042L6.096 18.9c-.04-.233.146-.479.399-.525.12-.022.243.001.346.062.003-.022.029-.049.051-.088.032.043.065.069.065.093-.001.018-.02.035-.038.052.07.064.118.147.138.256l1.588 7c.065.284.216.529.422.71-.006-.02-.01-.041-.009-.065 0-.089.07-.18.142-.187.082-.007.18.102.181.203.001.09-.068.162-.159.164H9.22c.177.115.383.188.604.208.023.002.046.003.058.003.59.02 1.126-.361 1.305-.927zM15.474 36.41c-.007.003-.036-.031-.032-.04.009-.02.03-.035.047-.053.012.014.025.029.048.054-.024.016-.042.034-.063.039zm.003 1.834c-.071.024-.103-.031-.106-.088-.001-.032.031-.065.062-.126.044.056.083.086.091.124.006.027-.022.083-.047.09zm-.227.041c-.026-.008-.054-.032-.066-.057-.006-.009.031-.056.044-.055.027.005.052.029.092.054-.033.029-.057.062-.07.058zm-.609-.583c-.028-.01-.054-.032-.072-.056-.004-.005.029-.053.044-.053.026.001.052.024.09.044-.03.031-.053.068-.062.065zm-.48 1.375c-.013.007-.046-.002-.055-.015-.045-.062-.01-.098.057-.134.055.066.066.114-.002.149zm-.237-.36c-.005-.019.057-.057.088-.086.029.033.058.065.097.109-.04.037-.068.062-.094.087-.032-.036-.079-.068-.091-.11zm-.119-1.128c.013-.031.034-.061.06-.084.006-.006.04.019.077.037-.037.04-.061.067-.085.094-.018-.016-.055-.039-.052-.047zM12.788 39.2c-.065.021-.141.01-.137-.071.002-.044.062-.116.104-.121.067-.009.139.028.209.045l.004.061c-.06.029-.117.065-.18.086zm-.186-.994c.002-.024.046-.067.061-.064.033.008.06.041.107.079-.054.029-.086.057-.12.06-.014.002-.049-.049-.048-.075zm-.692.533c-.001.005-.059.003-.069-.011-.054-.074-.012-.12.047-.157l.061.016c-.012.051-.022.103-.039.152zm-.879.615c.075-.108.124-.039.176-.03 0 .017.001.035.001.052-.054-.007-.107-.014-.177-.022zm4.829-1.945c.028.034.059.062.056.067-.018.025-.044.046-.07.063-.005.003-.041-.026-.039-.032.01-.028.028-.054.053-.098zm.223-.028c.027.013.048.039.084.073-.038.022-.069.049-.08.043-.024-.013-.046-.042-.053-.068-.003-.012.041-.052.049-.048zm.165.109c.013.003.03.029.027.042-.003.012-.029.028-.043.026-.013-.002-.023-.024-.04-.044.024-.012.043-.028.056-.024zm.306-.943c.009-.005.049.047.097.093-.052.041-.087.083-.13.094-.018.004-.082-.072-.074-.089.018-.042.064-.075.107-.098zm.337-1.839c.091-.016.122.079.148.148.016.044.026.099.013.142-.012.045-.049.107-.088.116-.074.019-.111-.042-.12-.11-.006-.04-.002-.082-.002-.123.006-.062-.056-.154.049-.173zm.211-.045v.194c-.046-.052-.093-.105 0-.194zm.123.707c.017.029.047.058.048.088.001.021-.037.043-.073.082-.018-.049-.041-.08-.036-.104.006-.025.039-.045.061-.066zm.188-.717c.029.042.062.068.059.09-.003.027-.036.05-.056.075-.022-.022-.061-.043-.063-.067-.002-.025.03-.052.06-.098zm.621.189c.036.058.078.096.07.119-.011.036-.056.061-.087.091-.025-.029-.073-.06-.07-.085.004-.037.046-.069.087-.125zm-.582 1.166c-.011-.026-.019-.055-.023-.088.048-.034.094-.076.145-.098.451-.694.884-1.427 1.304-2.148l-1.646-.14c.032.018.064.046.079.071.053.089.017.16-.115.265-.087-.068-.214-.104-.174-.234.014-.044.069-.088.12-.109l-.393-.033c-.114.191-.232.386-.352.582 0 .018-.004.04-.013.066-.006-.006-.012-.012-.017-.018-.297.48-.609.963-.928 1.411.012.024.02.044.018.063-.002.033-.055.063-.086.095-.008-.009-.017-.017-.027-.025-.31.429-.625.822-.934 1.146.029.033.073.069.069.099-.004.035-.063.063-.098.095l-.043-.025c.003-.035.007-.071.01-.106-.513.522-1.009.845-1.442.808l-2.026-.171-.166 1.889 2.024.171h.003c-.004-.007-.009-.014-.012-.022-.023-.072.039-.153.103-.149.077.005.107.061.117.126.003.02.002.038-.002.054 1.728.016 3.194-1.595 4.505-3.575z" fill="#3bb4b4" fill-rule="nonzero"/><path d="M12.179 8.484c-.019-.03-.04-.052-.036-.058.015-.025.037-.044.056-.065.009.016.027.036.024.05-.005.022-.024.041-.044.073zm-.903-3.061c-.063.022-.138-.057-.121-.131.007-.035.054-.083.088-.088.064-.008.127.017.129.137-.02.018-.053.067-.096.082zm-.138 2.232c-.029-.045-.063-.078-.057-.095.012-.034.047-.059.073-.087.021.024.061.051.058.071-.005.034-.039.062-.074.111zm-.231-4.588c-.025-.047-.024-.123-.006-.176.018-.049.073-.083.136-.148.04.071.074.117.093.169.028.078-.002.15-.076.177-.043.016-.131.005-.147-.022zm-.119 1.186c-.026-.003-.066-.053-.063-.078.003-.027.049-.072.074-.07.029.003.055.046.098.086-.048.03-.082.067-.109.062zm-.037.827c-.015.004-.059-.042-.058-.064.001-.023.036-.06.061-.064.023-.005.053.024.102.051-.047.037-.073.069-.105.077zm-.158 2.225c-.079-.004-.155-.093-.151-.179.004-.101.085-.189.17-.183.083.006.155.089.153.176-.003.094-.091.19-.172.186zm.089.862c-.023-.021-.059-.04-.063-.064-.004-.025.026-.054.04-.081.018-.013.036-.025.054-.038.011.033.035.068.03.098-.006.031-.04.057-.061.085zm-.486 1.117c-.019-.025-.059-.057-.054-.074.011-.031.047-.054.073-.08.021.022.042.044.075.079-.039.031-.066.053-.094.075zm.308-3c.014-.019.085-.024.105-.006.077.068.025.119-.035.176-.071-.045-.128-.089-.07-.17zM10.6.735c.03.032.074.06.085.097.007.022-.039.059-.079.115-.038-.06-.075-.095-.079-.134-.002-.023.047-.052.073-.078zm-.58 14.086c-.067-.042-.061-.088-.008-.132.009-.008.044-.004.052.007.042.06.018.099-.044.125zm-.115-.701c-.009-.038-.021-.062-.018-.083.002-.013.027-.022.04-.033.012.022.028.043.031.066 0 .01-.024.024-.053.05zm-.044-4.664c-.012.002-.029-.017-.058-.037.031-.02.051-.036.072-.043.005-.002.03.03.027.043-.003.015-.025.034-.041.037zm-.504 3.684c-.087.004-.146-.051-.15-.138-.004-.093.066-.175.146-.171.075.003.136.072.138.156.003.091-.048.15-.134.153zm-.685-3.399c-.029.006-.086-.055-.109-.097-.017-.031-.015-.09.004-.12.027-.042.078-.068.119-.101.026.036.057.07.078.109.013.023.012.055.023.115-.029.026-.067.085-.115.094zm-.036.74c-.03-.04-.06-.062-.057-.077.004-.021.033-.039.054-.05.006-.003.037.024.038.038 0 .022-.016.044-.035.089zm-.329-1.496c-.044-.073-.08-.115-.092-.163-.004-.016.065-.074.077-.067.044.022.09.059.108.102.008.019-.046.066-.093.128zm.296-.119c.025.021.052.038.05.043-.011.026-.029.05-.045.074-.012-.014-.036-.028-.035-.041.001-.023.017-.045.03-.076zm3.629-2.488c-.003.002-.005.004-.008.006-.013-.021-.036-.041-.038-.063-.001-.01.008-.022.02-.037L10.464 0l-.271 7.344-2.54-.562 1.678 6.779c.031-.017.051-.029.07-.039.012.021.03.042.03.063.001.013-.031.041-.039.037-.018-.006-.034-.024-.057-.046l.785 3.171.012-.692c-.013-.012-.033-.023-.036-.037-.003-.014.013-.031.026-.056.004.005.007.009.011.012l.109-6.535 3.023.668-1.033-3.729zM6.388 36.904c-.026-.004-.047-.041-.071-.063.028-.026.053-.059.086-.072.013-.004.045.043.079.079-.041.026-.07.06-.094.056zm-.254.268c-.01.004-.074-.064-.067-.077.022-.043.065-.077.1-.115.026.025.053.05.099.094-.054.042-.089.078-.132.098zm-.068.595c-.035-.003-.09-.053-.092-.084-.001-.033.046-.09.081-.097.03-.006.071.043.134.085-.057.047-.092.099-.123.096zm-.233-.783c-.022-.031-.051-.061-.064-.095-.004-.011.031-.036.065-.071.027.051.052.082.059.117.002.012-.039.033-.06.049zm-.439.636c-.022 0-.063-.038-.065-.06-.001-.025.03-.068.054-.073.021-.004.052.032.094.06-.036.033-.058.071-.083.073zm-.756-2.219c-.05-.023-.1-.07-.121-.119-.008-.019.062-.095.1-.098.039-.003.083.051.152.098-.061.057-.116.127-.131.119zm-.089.756c-.032-.011-.054-.047-.08-.072.032-.021.063-.051.098-.058.015-.002.041.044.073.082-.039.022-.073.054-.091.048zm.842-.711c.02.001.038.031.072.061-.04.02-.065.044-.083.039-.02-.005-.046-.038-.044-.056.002-.018.036-.046.055-.044zm-1.052-1.993c-.102-.003-.143-.056-.131-.122.007-.037.069-.064.107-.097.018.013.035.026.053.038-.01.059-.019.117-.029.181zm-.12 1.75c-.021-.023-.035-.053-.042-.083-.002-.004.049-.034.059-.028.023.015.038.045.068.085-.043.013-.079.033-.085.026zm-.09 1.376c-.002.002-.048-.026-.047-.028.016-.033.035-.063.054-.094.02.009.04.019.061.029-.022.031-.043.064-.068.093zm-.194-1.173c.002-.026.049-.059.082-.068.018-.004.048.037.085.068-.043.036-.072.062-.102.088-.024-.03-.067-.061-.065-.088zm-.164-3.159c.084-.093.159-.125.258-.061-.106.164-.111.166-.258.061zm-.399 3.173c-.028-.007-.049-.033-.073-.051.017-.019.036-.054.052-.053.027.002.053.026.097.051-.037.027-.061.057-.076.053zm-.011-1.003c.081.105.079.109-.068.201-.047-.093.023-.14.068-.201zm-.101-.626c-.082-.069-.143-.109-.185-.161-.019-.024-.012-.08.004-.112.012-.023.063-.047.088-.041.035.011.081.044.089.075.014.06.004.124.004.239zm-.278-.521c-.002.002-.051-.019-.05-.021.014-.039.031-.077.049-.115.019.009.039.018.06.027-.019.037-.037.074-.059.109zm.243-.564c.027.001.051.035.095.07-.045.024-.075.053-.097.048-.026-.005-.045-.041-.067-.062.023-.02.047-.057.069-.056zm1.127.051c-.158.077-.178.071-.309-.096.146-.042.247-.032.309.096zm3.46 5.11c.087.001.174.1.169.192-.004.093-.099.184-.185.176-.094-.007-.176-.098-.171-.189.006-.091.1-.18.187-.179zm.673 1.165c.034-.071.14-.083.192-.144.027.073.028.122-.003.16l.337.028.173-1.933-1.464-.122c-.33-.177-1.04-.597-1.702-1.244-.002 0-.004.001-.006.001-.018-.002-.049-.033-.048-.048.001-.002.002-.003.002-.005-.779-.778-1.474-1.875-1.39-3.269-.073-.025-.127-.09-.127-.163.001-.086.06-.141.152-.154v-.001l-1.741-.145c-.007.009-.014.018-.018.026-.048-.004-.08-.017-.102-.035l-.147-.013-.018.204c-.193 2.149.81 3.768 1.91 4.874.008-.003.016-.006.022-.007.028-.007.098.037.098.058 0 .02-.002.041-.005.062 1.121 1.084 2.301 1.64 2.402 1.687.11.049.225.078.34.088l1.143.095zM29.082 34.508V23.075l2.704 5.278v6.155h-2.704zm6.764 0l-6.764-13.194h2.704l4.285 8.359v-8.359h2.705v13.194h-2.93zM45.817 31.87h5.203v2.638h-5.203V31.87zm0-5.277h3.469v2.638h-3.469v-2.638zm0-5.279h5.203v2.641h-5.203v-2.641zm-3.47 0h2.601v13.194h-2.601V21.314zM60.663 34.508v-4.835l-.435-.441h-2.166v-2.639h2.166l.435-.44v-1.76l-.435-.438h-2.166v-2.641h3.469l1.734 1.761v4.398h-.002l-.43.438.432.442v6.155h-2.602zm-6.071-13.194h2.601v13.194h-2.601V21.314zM70.306 34.508v-2.637h2.167l.434-.438v-7.04l-.434-.438h-2.167v-2.641h3.469l1.735 1.761v9.674l-1.735 1.759h-3.469zm-3.469-13.194h2.601v13.194h-2.601V21.314zM82.041 34.508v-2.637h2.167l.434-.438v-1.76l-.434-.441h-2.167v-2.639h2.167l.434-.44v-1.76l-.434-.438h-2.167v-2.641h3.469l1.735 1.761v4.398h-.003l-.429.438.432.442v4.396l-1.735 1.759h-3.469zm-3.47-13.194h2.602v13.194h-2.602V21.314zM95.586 34.508v-2.637h.867l.434-.438V21.314h2.603v11.435l-1.735 1.759h-2.169zm-3.035 0l-1.735-1.759V21.314h2.602v10.119l.432.438h.868v2.637h-2.167zM103.061 34.508V23.075l2.562 5.278v6.155h-2.562zm6.409 0l-6.409-13.194h2.562l4.06 8.359v-8.359h2.562v13.194h-2.775zM122.887 34.508l-3.062-6.155v-.88l3.062-6.159h2.623l-3.28 6.597 3.28 6.597h-2.623zm-6.561-13.194h2.623v13.194h-2.623V21.314zM132.551 31.87h5.204v2.638h-5.204V31.87zm0-5.277h3.469v2.638h-3.469v-2.638zm0-5.279h5.204v2.641h-5.204v-2.641zm-3.469 0h2.601v13.194h-2.601V21.314zM147.398 34.508v-4.835l-.435-.441h-2.167v-2.639h2.167l.435-.44v-1.76l-.435-.438h-2.167v-2.641h3.469L150 23.075v4.398h-.003l-.429.438.432.442v6.155h-2.602zm-6.071-13.194h2.601v13.194h-2.601V21.314z" fill="#3bb4b4" fill-rule="nonzero"/></svg>