<svg viewBox="0 0 121 192" xmlns="http://www.w3.org/2000/svg" fill-rule="evenodd" clip-rule="evenodd" stroke-linejoin="round" stroke-miterlimit="2"><path d="M70.805 72.532v-4.469c0-.751.55-1.373 1.279-1.446.518-.052 1.007-.077 1.463-.077 1.514 0 2.651.281 3.21.813.228.216.525.618.477 1.609-.078 1.635-2.815 2.824-6.429 3.57m21.688 30.291c-.787.598-1.25 1.53-1.25 2.52v9.194c0 6.108-4.969 11.077-11.077 11.077h-9.361V76.44c5.105-.966 10.029-3.011 10.234-7.296.112-2.354-.841-3.776-1.66-4.553-1.598-1.518-4.178-2.109-7.672-1.764-2.685.268-4.71 2.519-4.71 5.236v5.063c-2.332.265-4.758.378-6.93.342-.014 0-.028-.001-.041 0-.006-.001-.012 0-.018 0-2.172.035-4.598-.078-6.93-.342v-5.063c0-2.717-2.025-4.968-4.71-5.236-3.493-.348-6.074.246-7.672 1.764-.819.777-1.772 2.199-1.66 4.553.204 4.285 5.128 6.33 10.234 7.296v49.174h-9.361c-6.108 0-11.077-4.969-11.077-11.077v-9.194c0-.99-.462-1.922-1.251-2.52C14.076 92.56 6.33 76.966 6.33 60.037 6.33 30.423 30.423 6.33 60.038 6.33c29.614 0 53.708 24.093 53.708 53.707 0 16.929-7.746 32.523-21.253 42.786m-25.496 22.791H53.078V76.982c3.057.31 5.738.314 6.957.295 1.218.02 3.901.016 6.962-.295v48.632zM49.27 72.532c-3.613-.747-6.352-1.935-6.429-3.57-.047-.991.249-1.393.478-1.609.559-.532 1.695-.813 3.21-.813.455 0 .944.025 1.461.077.73.073 1.28.695 1.28 1.446v4.469zm32.659 59.412c1.89 0 3.428 1.538 3.428 3.429 0 1.89-1.538 3.428-3.428 3.428H38.147c-1.89 0-3.429-1.538-3.429-3.428 0-1.891 1.539-3.429 3.429-3.429h43.782zm-3.66 33.231H41.807c-1.891 0-3.429-1.538-3.429-3.429 0-1.89 1.538-3.428 3.429-3.428h36.462c1.891 0 3.429 1.538 3.429 3.428 0 1.891-1.538 3.429-3.429 3.429m-18.231 19.517c-12.561 0-12.561-6.591-12.561-9.758 0-1.891 1.538-3.429 3.429-3.429H69.17c1.89 0 3.429 1.538 3.429 3.429 0 3.649 0 9.758-12.561 9.758m25.319-36.133c0 1.891-1.538 3.429-3.428 3.429H38.147c-1.89 0-3.429-1.538-3.429-3.429 0-1.891 1.539-3.428 3.429-3.428h43.782c1.89 0 3.428 1.537 3.428 3.428M60.038 0C26.933 0 0 26.933 0 60.037c0 18.396 8.181 35.381 22.502 46.85v7.65c0 6.167 3.227 11.592 8.079 14.684-1.369 1.68-2.193 3.821-2.193 6.152 0 2.543.987 4.854 2.586 6.593-1.599 1.738-2.586 4.05-2.586 6.593 0 3.609 1.975 6.76 4.896 8.448-.785 1.405-1.236 3.02-1.236 4.739 0 5.373 4.365 9.744 9.734 9.757-.404 1.07-.635 2.222-.635 3.431 0 13.297 10.273 16.088 18.891 16.088 12.535 0 18.89-5.413 18.89-16.088 0-1.209-.231-2.361-.634-3.431 5.369-.013 9.733-4.384 9.733-9.757 0-1.719-.451-3.334-1.235-4.739 2.92-1.688 4.895-4.839 4.895-8.448 0-2.543-.986-4.855-2.585-6.593 1.599-1.739 2.585-4.05 2.585-6.593 0-2.331-.824-4.472-2.193-6.152 4.852-3.093 8.079-8.517 8.079-14.684v-7.65c14.322-11.469 22.503-28.454 22.503-46.85C120.076 26.933 93.143 0 60.038 0" fill-rule="nonzero"/></svg>