<svg clip-rule="evenodd" fill-rule="evenodd" stroke-linejoin="round" stroke-miterlimit="2" viewBox="0 0 19 18" xmlns="http://www.w3.org/2000/svg"><path d="m34.494 31.992-7.875-7.875c.957-1.203 1.723-2.611 2.297-4.224.574-1.614.861-3.295.861-5.045 0-2.051-.396-3.979-1.189-5.784-.766-1.804-1.825-3.376-3.179-4.716-1.353-1.34-2.932-2.407-4.737-3.2-1.805-.765-3.733-1.148-5.783-1.148-2.051 0-3.979.383-5.784 1.148-1.804.793-3.383 1.86-4.737 3.2-1.353 1.34-2.413 2.912-3.179 4.716-.793 1.805-1.189 3.733-1.189 5.784 0 2.078.396 4.019 1.189 5.824.766 1.805 1.826 3.377 3.179 4.717 1.354 1.34 2.933 2.406 4.737 3.199 1.805.766 3.733 1.148 5.784 1.148 1.75 0 3.404-.287 4.963-.861 1.558-.574 2.994-1.34 4.306-2.297l7.875 7.875c.192.192.404.328.636.41s.431.123.595.123.362-.041.594-.123c.233-.082.445-.218.636-.41.356-.355.533-.765.533-1.23s-.177-.875-.533-1.231zm-30.967-17.144c0-1.559.287-3.035.862-4.43.601-1.367 1.415-2.57 2.44-3.609s2.235-1.846 3.63-2.42c1.367-.602 2.844-.903 4.43-.903s3.062.301 4.429.903c1.395.574 2.605 1.381 3.63 2.42 1.026 1.039 1.839 2.242 2.441 3.609.574 1.395.861 2.871.861 4.43 0 1.586-.287 3.062-.861 4.429-.575 1.368-1.395 2.584-2.461 3.651-1.039 1.039-2.242 1.852-3.61 2.44-1.367.588-2.843.882-4.429.882s-3.063-.301-4.43-.902c-1.395-.602-2.605-1.415-3.63-2.441-1.025-1.025-1.839-2.235-2.44-3.63-.575-1.367-.862-2.843-.862-4.429z" fill="#acacbd" fill-rule="nonzero" transform="scale(.514487)"/></svg>