<svg viewBox="0 0 15 15" xmlns="http://www.w3.org/2000/svg" fill-rule="evenodd" clip-rule="evenodd" stroke-linejoin="round" stroke-miterlimit="2"><g transform="matrix(.0293 0 0 .0293 -.0000064 -.0000064)"><clipPath id="a"><path d="M0 0h512v512H0z"/></clipPath><g clip-path="url(#a)" fill-rule="nonzero"><path d="M507.521 148.889L368.854 4.891c-4.523-4.692-11.457-6.164-17.492-3.735-6.058 2.453-10.027 8.32-10.027 14.848v69.335h-5.332c-114.686 0-207.998 93.311-207.998 207.998v31.999c0 7.422 5.227 13.609 12.457 15.297 1.176.297 2.348.426 3.52.426 6.039 0 11.82-3.543 14.613-9.11 29.996-60.011 90.304-97.28 157.397-97.28h25.343V304c0 6.532 3.969 12.399 10.027 14.828 5.996 2.454 12.969.961 17.492-3.734l138.667-143.998c5.972-6.207 5.972-15.977 0-22.207z"/><path d="M448.002 511.998H64.006c-35.285 0-63.999-28.71-63.999-63.999V149.338c0-35.285 28.714-63.999 63.999-63.999h63.999c11.797 0 21.332 9.535 21.332 21.332 0 11.796-9.535 21.331-21.332 21.331H64.006c-11.777 0-21.336 9.559-21.336 21.336v298.661c0 11.777 9.559 21.336 21.336 21.336h383.996c11.773 0 21.332-9.559 21.332-21.336V277.337c0-11.797 9.535-21.336 21.331-21.336 11.801 0 21.336 9.539 21.336 21.336v170.662c0 35.289-28.715 63.999-63.999 63.999z"/></g></g></svg>